<?xml version="1.0" encoding="UTF-8" standalone="no"?>
<!DOCTYPE svg PUBLIC "-//W3C//DTD SVG 1.1//EN"
 "http://www.w3.org/Graphics/SVG/1.1/DTD/svg11.dtd">
<!-- Generated by graphviz version 14.1.3 (20260303.0454)
 -->
<!-- Title: DriverPassDomain Pages: 1 -->
<svg width="999pt" height="595pt"
 viewBox="0.00 0.00 999.00 595.00" xmlns="http://www.w3.org/2000/svg" xmlns:xlink="http://www.w3.org/1999/xlink">
<g id="graph0" class="graph" transform="scale(1 1) rotate(0) translate(25.2 570.06)">
<title>DriverPassDomain</title>
<polygon fill="white" stroke="none" points="-25.2,25.2 -25.2,-570.06 974.19,-570.06 974.19,25.2 -25.2,25.2"/>
<text xml:space="preserve" text-anchor="middle" x="474.5" y="-519.26" font-family="Arial" font-size="24.00">DriverPass domain model</text>
<!-- User -->
<g id="node1" class="node">
<title>User</title>
<polygon fill="#dceeff" stroke="#3d8dff" points="0,-201.5 0,-261.02 113.84,-261.02 113.84,-201.5 0,-201.5"/>
<text xml:space="preserve" text-anchor="middle" x="17.76" y="-228.26" font-family="Arial" font-size="10.00">User</text>
<polyline fill="none" stroke="#3d8dff" points="35.51,-201.5 35.51,-261.02"/>
<text xml:space="preserve" text-anchor="start" x="42.71" y="-246.26" font-family="Arial" font-size="10.00">userId</text>
<text xml:space="preserve" text-anchor="start" x="42.71" y="-234.26" font-family="Arial" font-size="10.00">name</text>
<text xml:space="preserve" text-anchor="start" x="42.71" y="-222.26" font-family="Arial" font-size="10.00">contact details</text>
<text xml:space="preserve" text-anchor="start" x="42.71" y="-210.26" font-family="Arial" font-size="10.00">status</text>
</g>
<!-- Role -->
<g id="node2" class="node">
<title>Role</title>
<polygon fill="#f8f9fa" stroke="#6b7280" points="276.67,-385.5 276.67,-433.02 379.39,-433.02 379.39,-385.5 276.67,-385.5"/>
<text xml:space="preserve" text-anchor="middle" x="294.16" y="-406.26" font-family="Arial" font-size="10.00">Role</text>
<polyline fill="none" stroke="#6b7280" points="311.64,-385.5 311.64,-433.02"/>
<text xml:space="preserve" text-anchor="start" x="318.84" y="-418.26" font-family="Arial" font-size="10.00">roleId</text>
<text xml:space="preserve" text-anchor="start" x="318.84" y="-406.26" font-family="Arial" font-size="10.00">name</text>
<text xml:space="preserve" text-anchor="start" x="318.84" y="-394.26" font-family="Arial" font-size="10.00">permissions</text>
</g>
<!-- User&#45;&gt;Role -->
<g id="edge1" class="edge">
<title>User&#45;&gt;Role</title>
<path fill="none" stroke="#64748b" d="M37.99,-261.46C37.99,-312.24 37.99,-409.26 37.99,-409.26 37.99,-409.26 192.75,-409.26 276.18,-409.26"/>
<text xml:space="preserve" text-anchor="middle" x="177.61" y="-411.96" font-family="Arial" font-size="9.00">many&#45;to&#45;many</text>
</g>
<!-- Order -->
<g id="node4" class="node">
<title>Order</title>
<polygon fill="#f8f9fa" stroke="#6b7280" points="276.12,-292.5 276.12,-352.02 379.94,-352.02 379.94,-292.5 276.12,-292.5"/>
<text xml:space="preserve" text-anchor="middle" x="296.1" y="-319.26" font-family="Arial" font-size="10.00">Order</text>
<polyline fill="none" stroke="#6b7280" points="316.08,-292.5 316.08,-352.02"/>
<text xml:space="preserve" text-anchor="start" x="323.28" y="-337.26" font-family="Arial" font-size="10.00">orderId</text>
<text xml:space="preserve" text-anchor="start" x="323.28" y="-325.26" font-family="Arial" font-size="10.00">customerId</text>
<text xml:space="preserve" text-anchor="start" x="323.28" y="-313.26" font-family="Arial" font-size="10.00">status</text>
<text xml:space="preserve" text-anchor="start" x="323.28" y="-301.26" font-family="Arial" font-size="10.00">total</text>
</g>
<!-- User&#45;&gt;Order -->
<g id="edge2" class="edge">
<title>User&#45;&gt;Order</title>
<path fill="none" stroke="#64748b" d="M75.99,-261.31C75.99,-287.82 75.99,-322.26 75.99,-322.26 75.99,-322.26 201.99,-322.26 275.81,-322.26"/>
<text xml:space="preserve" text-anchor="middle" x="177.61" y="-303.96" font-family="Arial" font-size="9.00">customer places</text>
</g>
<!-- Appointment -->
<g id="node7" class="node">
<title>Appointment</title>
<polygon fill="#e9f8ef" stroke="#2e8b57" points="252.48,-199.5 252.48,-259.02 403.58,-259.02 403.58,-199.5 252.48,-199.5"/>
<text xml:space="preserve" text-anchor="middle" x="287.75" y="-226.26" font-family="Arial" font-size="10.00">Appointment</text>
<polyline fill="none" stroke="#2e8b57" points="323.03,-199.5 323.03,-259.02"/>
<text xml:space="preserve" text-anchor="start" x="330.23" y="-244.26" font-family="Arial" font-size="10.00">appointmentId</text>
<text xml:space="preserve" text-anchor="start" x="330.23" y="-232.26" font-family="Arial" font-size="10.00">start and end</text>
<text xml:space="preserve" text-anchor="start" x="330.23" y="-220.26" font-family="Arial" font-size="10.00">status</text>
<text xml:space="preserve" text-anchor="start" x="330.23" y="-208.26" font-family="Arial" font-size="10.00">pickup location</text>
</g>
<!-- User&#45;&gt;Appointment -->
<g id="edge7" class="edge">
<title>User&#45;&gt;Appointment</title>
<path fill="none" stroke="#64748b" d="M114.08,-230.26C154.24,-230.26 208.39,-230.26 252.16,-230.26"/>
<text xml:space="preserve" text-anchor="middle" x="177.61" y="-233.96" font-family="Arial" font-size="9.00">customer books</text>
</g>
<!-- User&#45;&gt;Appointment -->
<g id="edge8" class="edge">
<title>User&#45;&gt;Appointment</title>
<path fill="none" stroke="#64748b" d="M114.08,-244.89C154.24,-244.89 208.39,-244.89 252.16,-244.89"/>
<text xml:space="preserve" text-anchor="middle" x="177.61" y="-185.96" font-family="Arial" font-size="9.00">instructor assigned</text>
</g>
<!-- Attempt -->
<g id="node10" class="node">
<title>Attempt</title>
<polygon fill="#f8f9fa" stroke="#6b7280" points="241.38,-105.5 241.38,-165.02 414.68,-165.02 414.68,-105.5 241.38,-105.5"/>
<text xml:space="preserve" text-anchor="middle" x="293.04" y="-132.26" font-family="Arial" font-size="10.00">AssessmentAttempt</text>
<polyline fill="none" stroke="#6b7280" points="344.7,-105.5 344.7,-165.02"/>
<text xml:space="preserve" text-anchor="start" x="351.9" y="-150.26" font-family="Arial" font-size="10.00">attemptId</text>
<text xml:space="preserve" text-anchor="start" x="351.9" y="-138.26" font-family="Arial" font-size="10.00">score</text>
<text xml:space="preserve" text-anchor="start" x="351.9" y="-126.26" font-family="Arial" font-size="10.00">status</text>
<text xml:space="preserve" text-anchor="start" x="351.9" y="-114.26" font-family="Arial" font-size="10.00">completedAt</text>
</g>
<!-- User&#45;&gt;Attempt -->
<g id="edge10" class="edge">
<title>User&#45;&gt;Attempt</title>
<path fill="none" stroke="#64748b" d="M114.21,-215.63C170.17,-215.63 246.99,-215.63 246.99,-215.63 246.99,-215.63 246.99,-188.04 246.99,-165.19"/>
<text xml:space="preserve" text-anchor="middle" x="177.61" y="-137.96" font-family="Arial" font-size="9.00">completes</text>
</g>
<!-- Audit -->
<g id="node12" class="node">
<title>Audit</title>
<polygon fill="#f8f9fa" stroke="#6b7280" points="266.39,-0.5 266.39,-72.02 389.67,-72.02 389.67,-0.5 266.39,-0.5"/>
<text xml:space="preserve" text-anchor="middle" x="297.77" y="-33.26" font-family="Arial" font-size="10.00">AuditEvent</text>
<polyline fill="none" stroke="#6b7280" points="329.15,-0.5 329.15,-72.02"/>
<text xml:space="preserve" text-anchor="start" x="336.35" y="-57.26" font-family="Arial" font-size="10.00">actorId</text>
<text xml:space="preserve" text-anchor="start" x="336.35" y="-45.26" font-family="Arial" font-size="10.00">action</text>
<text xml:space="preserve" text-anchor="start" x="336.35" y="-33.26" font-family="Arial" font-size="10.00">target</text>
<text xml:space="preserve" text-anchor="start" x="336.35" y="-21.26" font-family="Arial" font-size="10.00">outcome</text>
<text xml:space="preserve" text-anchor="start" x="336.35" y="-9.26" font-family="Arial" font-size="10.00">timestamp</text>
</g>
<!-- User&#45;&gt;Audit -->
<g id="edge13" class="edge">
<title>User&#45;&gt;Audit</title>
<path fill="none" stroke="#64748b" d="M56.99,-201.22C56.99,-146.52 56.99,-36.26 56.99,-36.26 56.99,-36.26 186.2,-36.26 266.19,-36.26"/>
<text xml:space="preserve" text-anchor="middle" x="177.61" y="-38.96" font-family="Arial" font-size="9.00">actor</text>
</g>
<!-- Package -->
<g id="node3" class="node">
<title>Package</title>
<polygon fill="#f8f9fa" stroke="#6b7280" points="799,-376.5 799,-436.02 948.99,-436.02 948.99,-376.5 799,-376.5"/>
<text xml:space="preserve" text-anchor="middle" x="843.72" y="-403.26" font-family="Arial" font-size="10.00">TrainingPackage</text>
<polyline fill="none" stroke="#6b7280" points="888.45,-376.5 888.45,-436.02"/>
<text xml:space="preserve" text-anchor="start" x="895.65" y="-421.26" font-family="Arial" font-size="10.00">packageId</text>
<text xml:space="preserve" text-anchor="start" x="895.65" y="-409.26" font-family="Arial" font-size="10.00">name</text>
<text xml:space="preserve" text-anchor="start" x="895.65" y="-397.26" font-family="Arial" font-size="10.00">price</text>
<text xml:space="preserve" text-anchor="start" x="895.65" y="-385.26" font-family="Arial" font-size="10.00">status</text>
</g>
<!-- Order&#45;&gt;Package -->
<g id="edge3" class="edge">
<title>Order&#45;&gt;Package</title>
<path fill="none" stroke="#64748b" d="M380.37,-344.52C512.48,-344.52 848.99,-344.52 848.99,-344.52 848.99,-344.52 848.99,-360.44 848.99,-376.11"/>
<text xml:space="preserve" text-anchor="middle" x="590.09" y="-499.96" font-family="Arial" font-size="9.00">contains</text>
</g>
<!-- Payment -->
<g id="node5" class="node">
<title>Payment</title>
<polygon fill="#f8f9fa" stroke="#6b7280" points="498.71,-373.5 498.71,-433.02 681.47,-433.02 681.47,-373.5 498.71,-373.5"/>
<text xml:space="preserve" text-anchor="middle" x="541.76" y="-400.26" font-family="Arial" font-size="10.00">PaymentRecord</text>
<polyline fill="none" stroke="#6b7280" points="584.81,-373.5 584.81,-433.02"/>
<text xml:space="preserve" text-anchor="start" x="592.01" y="-418.26" font-family="Arial" font-size="10.00">providerReference</text>
<text xml:space="preserve" text-anchor="start" x="592.01" y="-406.26" font-family="Arial" font-size="10.00">status</text>
<text xml:space="preserve" text-anchor="start" x="592.01" y="-394.26" font-family="Arial" font-size="10.00">amount</text>
<text xml:space="preserve" text-anchor="start" x="592.01" y="-382.26" font-family="Arial" font-size="10.00">timestamps</text>
</g>
<!-- Order&#45;&gt;Payment -->
<g id="edge4" class="edge">
<title>Order&#45;&gt;Payment</title>
<path fill="none" stroke="#64748b" d="M380.22,-348.52C431.47,-348.52 501.99,-348.52 501.99,-348.52 501.99,-348.52 501.99,-360.35 501.99,-373.01"/>
<text xml:space="preserve" text-anchor="middle" x="456.69" y="-405.96" font-family="Arial" font-size="9.00">has 0..1</text>
</g>
<!-- Entitlement -->
<g id="node6" class="node">
<title>Entitlement</title>
<polygon fill="#f8f9fa" stroke="#6b7280" points="522.05,-292.5 522.05,-340.02 658.13,-340.02 658.13,-292.5 522.05,-292.5"/>
<text xml:space="preserve" text-anchor="middle" x="554.26" y="-313.26" font-family="Arial" font-size="10.00">Entitlement</text>
<polyline fill="none" stroke="#6b7280" points="586.47,-292.5 586.47,-340.02"/>
<text xml:space="preserve" text-anchor="start" x="593.67" y="-325.26" font-family="Arial" font-size="10.00">entitlementId</text>
<text xml:space="preserve" text-anchor="start" x="593.67" y="-313.26" font-family="Arial" font-size="10.00">packageId</text>
<text xml:space="preserve" text-anchor="start" x="593.67" y="-301.26" font-family="Arial" font-size="10.00">status</text>
</g>
<!-- Order&#45;&gt;Entitlement -->
<g id="edge5" class="edge">
<title>Order&#45;&gt;Entitlement</title>
<path fill="none" stroke="#64748b" d="M380.43,-316.26C421.06,-316.26 477.69,-316.26 521.86,-316.26"/>
<text xml:space="preserve" text-anchor="middle" x="456.69" y="-321.96" font-family="Arial" font-size="9.00">creates</text>
</g>
<!-- Entitlement&#45;&gt;Package -->
<g id="edge6" class="edge">
<title>Entitlement&#45;&gt;Package</title>
<path fill="none" stroke="#64748b" d="M658.26,-316.26C749.23,-316.26 898.99,-316.26 898.99,-316.26 898.99,-316.26 898.99,-350.11 898.99,-376.29"/>
<text xml:space="preserve" text-anchor="middle" x="740.24" y="-392.96" font-family="Arial" font-size="9.00">grants access to</text>
</g>
<!-- Vehicle -->
<g id="node8" class="node">
<title>Vehicle</title>
<polygon fill="#f8f9fa" stroke="#6b7280" points="536.22,-211.5 536.22,-259.02 643.95,-259.02 643.95,-211.5 536.22,-211.5"/>
<text xml:space="preserve" text-anchor="middle" x="559.82" y="-232.26" font-family="Arial" font-size="10.00">Vehicle</text>
<polyline fill="none" stroke="#6b7280" points="583.42,-211.5 583.42,-259.02"/>
<text xml:space="preserve" text-anchor="start" x="590.62" y="-244.26" font-family="Arial" font-size="10.00">vehicleId</text>
<text xml:space="preserve" text-anchor="start" x="590.62" y="-232.26" font-family="Arial" font-size="10.00">status</text>
<text xml:space="preserve" text-anchor="start" x="590.62" y="-220.26" font-family="Arial" font-size="10.00">availability</text>
</g>
<!-- Appointment&#45;&gt;Vehicle -->
<g id="edge9" class="edge">
<title>Appointment&#45;&gt;Vehicle</title>
<path fill="none" stroke="#64748b" d="M403.83,-235.26C446.15,-235.26 497.89,-235.26 536.09,-235.26"/>
<text xml:space="preserve" text-anchor="middle" x="456.69" y="-237.96" font-family="Arial" font-size="9.00">uses</text>
</g>
<!-- Feedback -->
<g id="node11" class="node">
<title>Feedback</title>
<polygon fill="#f8f9fa" stroke="#6b7280" points="505.92,-118.5 505.92,-178.02 674.26,-178.02 674.26,-118.5 505.92,-118.5"/>
<text xml:space="preserve" text-anchor="middle" x="551.2" y="-145.26" font-family="Arial" font-size="10.00">LessonFeedback</text>
<polyline fill="none" stroke="#6b7280" points="596.48,-118.5 596.48,-178.02"/>
<text xml:space="preserve" text-anchor="start" x="603.68" y="-163.26" font-family="Arial" font-size="10.00">feedbackId</text>
<text xml:space="preserve" text-anchor="start" x="603.68" y="-151.26" font-family="Arial" font-size="10.00">appointmentId</text>
<text xml:space="preserve" text-anchor="start" x="603.68" y="-139.26" font-family="Arial" font-size="10.00">notes</text>
<text xml:space="preserve" text-anchor="start" x="603.68" y="-127.26" font-family="Arial" font-size="10.00">createdAt</text>
</g>
<!-- Appointment&#45;&gt;Feedback -->
<g id="edge12" class="edge">
<title>Appointment&#45;&gt;Feedback</title>
<path fill="none" stroke="#64748b" d="M403.94,-205C455.36,-205 513.99,-205 513.99,-205 513.99,-205 513.99,-191.9 513.99,-178.29"/>
<text xml:space="preserve" text-anchor="middle" x="456.69" y="-150.96" font-family="Arial" font-size="9.00">has 0..1</text>
</g>
<!-- Assessment -->
<g id="node9" class="node">
<title>Assessment</title>
<polygon fill="#f8f9fa" stroke="#6b7280" points="517.61,-37.5 517.61,-85.02 662.57,-85.02 662.57,-37.5 517.61,-37.5"/>
<text xml:space="preserve" text-anchor="middle" x="552.04" y="-58.26" font-family="Arial" font-size="10.00">Assessment</text>
<polyline fill="none" stroke="#6b7280" points="586.47,-37.5 586.47,-85.02"/>
<text xml:space="preserve" text-anchor="start" x="593.67" y="-70.26" font-family="Arial" font-size="10.00">assessmentId</text>
<text xml:space="preserve" text-anchor="start" x="593.67" y="-58.26" font-family="Arial" font-size="10.00">title</text>
<text xml:space="preserve" text-anchor="start" x="593.67" y="-46.26" font-family="Arial" font-size="10.00">version</text>
</g>
<!-- Attempt&#45;&gt;Assessment -->
<g id="edge11" class="edge">
<title>Attempt&#45;&gt;Assessment</title>
<path fill="none" stroke="#64748b" d="M401.99,-105.16C401.99,-91.79 401.99,-79.02 401.99,-79.02 401.99,-79.02 464.44,-79.02 517.37,-79.02"/>
<text xml:space="preserve" text-anchor="middle" x="456.69" y="-63.96" font-family="Arial" font-size="9.00">for</text>
</g>
</g>
</svg>
